<?xml version="1.0" encoding="UTF-8"?>
<svg id="Layer_2" data-name="Layer 2" xmlns="http://www.w3.org/2000/svg" xmlns:xlink="http://www.w3.org/1999/xlink" viewBox="0 0 1024 1024">
  <defs>
    <style>
      .cls-1 {
        fill: #e83522;
      }

      .cls-2 {
        fill: #047692;
      }

      .cls-3 {
        fill: #000315;
      }

      .cls-4 {
        fill: #e00200;
      }

      .cls-5 {
        fill: #045ea0;
      }

      .cls-6 {
        fill: #0a988b;
      }

      .cls-7 {
        fill: #0c2c4f;
      }

      .cls-8 {
        fill: #0ca88b;
      }

      .cls-9 {
        fill: url(#linear-gradient);
      }

      .cls-10 {
        fill: #0468a8;
      }
    </style>
    <linearGradient id="linear-gradient" x1="147.78" y1="1273.1" x2="-204.12" y2="1528.81" gradientTransform="translate(448 -1052)" gradientUnits="userSpaceOnUse">
      <stop offset="0" stop-color="#0267aa"/>
      <stop offset=".56" stop-color="#0b9f8a"/>
      <stop offset="1" stop-color="#0aa98c"/>
    </linearGradient>
  </defs>
  <g id="Layer_1" data-name="Layer 1">
    <g>
      <path class="cls-1" d="M613,383c.05-12.7-.91-27.06,0-39.52.11-1.49-.78-2.89,1.49-2.48l157.51,126.01c.81,1.2-5.18,5.87-6.52,6.96-31.98,26.19-65.12,52.79-96.57,79.43l-16.9,14.6c-12.75,9.36-25.8,19.65-38,30l-1-112-1-1h-218c-.31,1.94.64,1.91,1.66,2.84,16.62,15.25,31.73,31.36,46.34,48.16v1c-3.03,2.69-5.43,1.36-8.27,2.23-19.49,5.98-36.57,24.43-47.73,40.77-.43.63-1.1,1.07-1.02,1.99l-2.01-.45c-22.95-18.46-46.51-36.79-71.97-51.53-2.42,3.28,6.99,9.99,8.99,12,3.84,7,9.89,12.2,16,17,1.31,1.03,2.42,2.57,3,3,1.07,2.67,3.13,5.29-.89,6.1l.89,1.9c-9.4,13.22-14.45,26.42-30,33-14.89-8.87-29.53-18.18-44.36-27.18-.91-.55-1.36-1.66-1.64-1.82,2.4-.76-.86-1.64-1.54-1.98-2.92-1.48-4.57-3.26-7.5-4.51l-.77-1.78,18.81-43.72c3.1-4.65,4.02-10.35,6.1-15.4,2-4.85,4.48-7.55,5.9-13.6,3.76-16.06,1.43-25.34,9.51-41.99.49-1.01,2.49-3.42.49-4.01,5.29-8.67,15.81-20.59,25-25l294-2c.03-5.32-.04-10.68,0-16,.05-6.99-.03-14.01,0-21ZM309.99,529.01h-1.99v.98h1.99v-.98Z"/>
      <path class="cls-9" d="M204,387c13.61-19.25,21.34-51.69,32.14-74.36,4.99-10.48,18.45-37.58,26.34-44.66,8.01-7.19,40.96-18.88,52.72-24.02,26.68-11.67,55.97-24.24,86.26-26,7.91-.46,30.08,1.77,35.47-1.53,2.53-1.55,9.59-14.92,9.76-18.06.28-5.1-5.27-19.16-5.72-26.82-1.79-30.54,23.89-51.74,53.42-47.42,4.12.6,10.6,2.19,14.66,3.34,11.29,3.2,23.06,11.46,34.95,8.54,1.39,1.59-4.98,13.42-6.39,15.6-.95,1.48-5.03,4.38-5.37,6-.52,2.55,2.12,6.8,2.52,9.14,1.13,6.65,2.07,14.1-1.15,20.36-.97,1.89-3.35,2.81-3.42,3.34-.14,1.04,4.82,11.26,5.37,14.5.63,3.7.49,7.34.45,11.06h-9.01c0,4.63,1.13,7.56-3.11,10.43-.92.62-2.79.48-2.9.58s.89,1.61.8,2.44c-1.16,10.86,1.26,16.76-13.14,14.42-4.21-.68-12.08-4.69-15.03-4.6-.79.02-7.65,4.78-7.33,6.24,12.43,13.03,25.22,23.25,32.19,40.5,7.31,18.1,10.9,40.21,16.52,58.98l-3.02.52,8.02,25.74c6.52,4.57,14.78,5,22.22,6.84.74.18.7,1.59,1.52,1.85,3.68,1.18,8.84-.62,11.6.05,1.75.43-1.27.97,5.08,1.16,10.83.32,21.68,2.48,32.58,1.85-.03,6.99.05,14.01,0,21-3.94-.02-7.64,1.58-11.52,1.98-21.6,2.27-46.04,5.65-67.97,4-13.48-1.01-19.62-3.06-25.7-15.3l-20.83-55.69-33,63.99-.99-1.99-128-1,34.99-110-36.97,5-2.63-7.08-28.4,7.07-1,1c-1.74,3.46-4.63,6.05-7,9l-1,1c-.85,1.08-1.93,2.63-3,4l-1,1c-1.29,1.67-1.85,6.03-5,7l-1,1c-.07.83-.53,1.37-1,2l-1,1c-6.46,8.67-14.99,19.91-21,29l-1,1c-5.85,9.04-14.35,24.83-15.03,35.46-.77,11.98,5.07,27.75-7.46,36.54-3.74,2.62-7,1.35-8.33,2.2-.22.14-.44,1.97-1.17,2.79l-1,1c-3.02,2.82-5.81,2.82-8.96-.58-4.93-5.32-10.55-11.13-13.54-18.42-3.63-8.9-.13-13.01,5.49-19,2.19-1.18,3.6-3.02,5-5Z"/>
      <path class="cls-5" d="M597,364l-42.87-6.13c-1.22-6.25-2.09-12.68-3.63-18.87-4.12-16.6-9.63-36.7-15.23-52.77-3.4-9.75-7.55-19.28-14.27-27.22,7.79-2.36,12.88-9.18,16.18-16.33,4.66-10.11,2.02-15.49,16.29-16.71,8.92-.76,29.71,2.04,36.46-1.54,5.48-2.91,12.5-18.9,13-25.05.46-5.7-2.41-11.26-2.9-16.88-2.7-30.98,19-60.75,51.48-60.57,13.3.07,50.88,13.29,55.04,27.04,2.6,8.6-2.97,9.96-5.95,15.13-2.95,5.11,1.26,19.37-2.39,28.62-.8,2.02-3.84,5.44-3.85,6.79,0,.84,4.66,11.31,5.36,14.3.79,3.38,1.85,6.59,1.23,10.16l-11.95,1.04c.08,3.25.15,7.77-2.6,9.93-.82.65-2.92.73-3.24,1.22-.46.71-.12,9.51-1.41,13.09-5.33,14.73-25.14-2.36-33.01-.07-2.91.85-13.09,13.36-13.6,16.56-.59,3.65,7.94,8.83,10.27,11.38,19.59,21.43,9.34,43.87,1.59,67.89l-49.99-39v58Z"/>
      <path class="cls-5" d="M652,568c24.65,17.66,19.85,37.3,2.97,58.47-4.43,5.56-10.92,10.84-14.8,16.2-4.26,5.89-6.24,13.65-10,20-8.1,13.66-20.24,22.89-30.68,34.32-12.36,13.52-23.92,27.67-31.48,44.56,4.77,15.92,7.68,33.29,18.48,46.47,5.97,7.28,22.3,18,20.48,28.42-1.79,10.29-11.75,3.72-15.34,4.48-.52.11-2.59,7.26-7.93,5.97-4.97-1.21-2.4-8.46-2.69-8.87-.23-.33-7.12-2.67-7.52-2.66-2.26.03-8.46,7.06-9.48,1.13-.3-1.73.5-3.77-.51-5.49-.35-.59-8.43-5.71-8.99-5.68-1.3.07-5.08,4.71-8.57,2.25-2.05-2.82-.06-6.47-1.45-9.55-.68-1.5-12.6-12.78-13.98-12.69-1.48.09-5.41,5.38-8.59,1.27-1.96-3.1-1.03-6,1.09-8.58-3.05.27-7.49-3.62-9.66-3.8-2.12-.18-10.27,5.47-10.27-2.57,0-6.26-.14-3.21-1.86-8.34-3.43-10.24,4.09-21.36,11.26-28.32,18.87-18.32,33.99-32.48,45.7-57.3,19.82-42.01,17.9-47.25,54.83-78.67.36-.3.65-.7,1-1,12.2-10.35,25.25-20.64,38-30Z"/>
      <path class="cls-8" d="M263,574c.28.17.74,1.27,1.64,1.82,14.83,8.99,29.47,18.31,44.36,27.18-7.14,3.02-18.27,28.08-23,34.5-6.41,8.69-16.92,12.5-24.91,19.09-8.32,6.85-12.53,17.22-19.57,25.43-19.64,22.9-44.26,42.11-63.93,66.07-2.52,3.08-5.79,9.71-8.59,11.91-.38.3-1.49.83-2,1-12.4,4.1-24.91-17.53-24-29,.05-.65-.14-1.48,0-2,.74-2.82,12.63-15.27,15.41-19.09,21.05-28.91,24.99-55.61,54.57-81.43,9.67-8.44,25.65-15.7,31.2-26.8,4.75-9.5,8.31-21.57,11.81-31.69,1.85,1.05,5.45,2.07,7,3Z"/>
      <path class="cls-5" d="M597,505v88l-9.53-4.98-6.19,4.83-3.29-.31-58.67-31.39c-4.07.75-4.71,5.52-6.77,7.89-5.89,6.79-12.79,13-18.53,19.96.15-3.92-1.02-7.62-2.25-11.26-5.89-17.43-36.25-59.72-50.49-70.43-.89-.67-1.8,0-1.27-2.31h157Z"/>
      <path class="cls-6" d="M442,537c-.58,2.79,2.62,2.58,3,3,9.81,10.7,31.51,42.46,32.79,56.79.36,4.03-1.69,10.31-3.59,13.91-1.83,3.45-7.6,9.66-10.2,12.3-6.75,6.87-13.48,9.99-20.89,15.61-16.12,12.22-31.22,25.79-50.11,33.39,0,.6.25,1.27-.17,1.8l-8.83,4.2c4.66-3.38,2.66-3.45,9-6,.05-3.69-3.96-1.83-4.85-4.66-.8-2.56,0-9.54-2.43-12.07-.66-.68-5.16-1.89-6.43-3.55-1.81-2.36-1.34-2.95-4.28-6.19-1.03-1.14-1.75-3.44-3-4.04-2.4-1.15-7.43-.21-10.4-1.42l-1.16.91c.07,5.05-1.66,3.41-2.46,4.02,8.13-22.98,28.44-40.09,51-48.01l-.63-2.06-22.38-14.93c11.16-16.34,28.24-34.79,47.73-40.77,2.84-.87,5.24.46,8.27-2.23Z"/>
      <path class="cls-7" d="M881.1,760.63c0,39.6-32.1,71.71-71.71,71.71s-71.71-32.1-71.71-71.71,32.1-71.71,71.71-71.71,71.71,32.1,71.71,71.71ZM828.79,699.2c-2.72-2.01-33.22-1.73-37.08.04-4.91,2.26-6.72,13.12-10.47,17.27l14.43,16.33,27.68,1.05,13.52-16.6-8.08-18.09ZM788.63,732.36c-.48-.71-1.84-1.07-2.45-1.99-2.42-3.6-4.66-7.33-7.18-10.87l-17.86-1.42c-7.22,10.9-12.86,22.7-14.67,35.89l15.16,14.83c7.43-1.36,14.07-4.61,21.25-5.92l7.91-25.55c.04-.73-1.62-4.16-2.17-4.97ZM871.78,758.8c2.71-4.62-8.24-33.36-12.74-37.33-1.64-1.44-17.5-2.94-19.05-1.98l-11.75,17.14,6.23,26.41c.96,1.34,3.87.92,5.32,1.66,2.79,1.41,3,1.47,6.23,2.77,3.23,1.31,6.08,3.64,9.51,4.51,5.5-2.79,8.91-6.63,12.94-11.03.93-1.02,3.1-1.79,3.31-2.15ZM795.7,775.31c-7.09-1.89-5.91-9.75-14.13-8.26-1.87.34-3.43,2.01-5.53,2.49-4.44,1.03-8.99,1.27-13.4,2.37l-6.13,23.04c5.3,8.57,13.6,13.65,21.74,19.04,1.9,1.26,2.6,4.19,6.51,4.84,5.56.92,16.01-10.51,21.08-13.49l-.04-19.63-10.09-10.4ZM854.78,775.22l-21.13-7.01c-2.39.23-7.54,5.46-9.44,6.79-3.01,2.1-12.64,7.7-13.19,10.53-.54,2.79.15,6.84-.03,9.97-.26,4.54-2.63,7.67.55,12.47,1.76,2.66,3.75,2.32,5.35,3.65,2.02,1.67,3.77,3.08,5.82,4.69.78.61,1,2.59,2.26,3.23,5.79,2.94,18.38-8.89,23.93-11.12l10.13-10.95-4.24-22.23Z"/>
      <path class="cls-7" d="M711,839c-19.24.01-39.38-.79-58.51,0-1.22.05-3.72-.75-3.48.99,28.48-.26,57.02.38,85.51.03,1.69-.02,4.45.64,5.49-1.02,32.83.26,65.7.13,98.49,2.01,4.11.24,8.56,1.81,13.03.99l1.48,2c-5,.26-10,.67-15,1.01-7.93-2.78-17.56-.16-25.46.04-24.35.63-48.74.14-73.09.96-1.93.06-4.01-1.02-3.45,2-.67,0-1.33,0-2,0-1.04-1.66-3.79-1-5.49-1.02-26.16-.28-52.36.23-78.51.03-.23,1.74,2.27.94,3.48.99,13.91.57,28.52-.02,42.51,0-1.04,1.66-3.79,1-5.49,1.02-21.49.27-43.04-.02-64.51-.02h-303c-4.32,0-8.68,0-13,0,.56-3.03-1.53-1.92-3.45-2-20.17-.8-41.78-.23-62.06-.02-1.69.02-4.45-.64-5.49,1.02-30.32-.25-60.78-.44-91-2,.56-3.03-1.53-1.92-3.45-2-3.84-.15-7.71.12-11.54,0-.24-1.74,2.27-.95,3.48-.99,3.01-.11,6.02.16,9.03-.03,1.6-.1,1.4-.97,1.48-.97,3.64-.2,7.36.2,11,0,7.81-.44,15.38-1.89,25-2-.16.52-.32,2.08.52,2.02,20.45-2.06,41.39-.73,62.03-.98,2.36-.03,4.55-1.06,6.92-1.08,44-.44,88.03.41,132.04.05,1.62-1.42-1.11-.98-1.98-1.01-23.74-.71-47.76-.02-71.52,0h400Z"/>
      <path class="cls-10" d="M143,732c-.91,11.47,11.6,33.1,24,29,5.17,10.29-6.09,48.04-.7,54.71l7.7,5.29c3.68,3.68,11.15,9.58,10.93,15.55-.06,1.61-1.62,2.46-1.93,3.45-9.62.11-17.19,1.56-25,2,.47-1.76-5.08-5.74-5.48-5.74-.59,0-3.5,2.99-5.44,1.65-1.94-2.42-.04-5.63-.32-7.3-.18-1.03-2.71-2.95-3.65-4.26-.68-.96-1.02-3.23-1.16-3.34-.57-.44-11.83,3.97-8.95-6.01,5.75-.13,3.39-9.1,2.32-12.82-.46-1.61-7.63-17.72-8.23-18.53-1.49-2-9.96-.43-6.09-6.65.35-.28.6-.77,1-1,.45-.25,2.04.53,2-.5l-5.04-6-1.95-.5c-.33.03-.67-.04-1,0-2.89-1.89-7.15-.1-6.02-5.37.06-.27,1.21-.36,2.02-2.63.09-.25-.04-.65,0-1,.57-4.83-.95-9.97,1.47-15.03.57-1.19,6.39-7.69,7.49-8.51,5.58-4.18,15.16-6,22.04-6.46Z"/>
      <path class="cls-10" d="M311,687c-5.68,14.95,9.81,27.79,23,30v1c-3.44,15.18-10.17,28.34-6.77,44.27,2.34,10.95,21.68,41.18-5.23,34.73-4.28-2.53-10.47-10.52-11.2-10.81-1.46-.57-5.4,2.37-7.37-.13-2.3-3.21,2.26-5.58,2.34-6.55.04-.49-4.43-8.17-4.77-8.51-1.73-1.75-3.7-.89-6.01-1-1.63-3.94,2.79-6.23,3.02-8.51.46-4.57-6.83-26.13-10.74-27.29-1.67-.5-4.83,1.45-6.16-1.85-.74-2.69.27-3.96,2.83-4.45.56-1.05-.89-1.66-.94-1.9-.07-.34.1-.74,0-1-1.06-2.78-2.17-5.05-4.51-6.99h-1.48s0,1.99,0,1.99c-.46-.21-1.73.08-2.94-.51-3.74-1.86-3.7-5.48-.06-7.49.05-.03.47.98.76.77,3.52-2.45,1.71-6.87,2.71-10.8,2.37-9.35,24.72-16.09,33.53-14.97Z"/>
      <path class="cls-8" d="M358,645c.8-.62,2.53,1.03,2.46-4.02l1.16-.91c2.96,1.21,8,.27,10.4,1.42,1.25.6,1.97,2.91,3,4.04,2.94,3.24,2.46,3.83,4.28,6.19,1.27,1.66,5.78,2.87,6.43,3.55,2.43,2.53,1.63,9.51,2.43,12.07.89,2.83,4.89.97,4.85,4.66-6.34,2.55-4.34,2.62-9,6-17.21,12.51-36.66,21.44-50,39-13.19-2.21-28.68-15.05-23-30,.2-.52,1.05-1.15,1-2,10.47-8.48,20.89-17.1,31-26l9.55-6.93,4.45-6.07c.29-.27.49-.61,1-1Z"/>
      <path class="cls-10" d="M764,378c-9.64,5.82-19.72,5.79-30.01,8.49-5.18,1.36-17.77,7.57-21.49,7.57-2.49,0-4.78-1.75-6.72-3.11-4.23-2.96-11.52-9.1-15.5-12.67-.66-.59-1.92.07-1.28-2.27,6.68-2.03,14.91-3.69,21.3-6.22,2.38-.94,11.08-5.01,12.67-6.33,5.01-4.16,7.07-14.94,13.66-19.3,4.02-2.66,23.36-9.28,27.73-8.21,1.59,2.35,2,4.99,3.78,7.46,1.05,1.45,2.75,1.45,2.87,1.59.51.6,2.02,13.67,2.03,15.53.02,2.97-1.41,3.1-2.03,4.47-1.66,3.64-3.49,7.29-5,11-.76.95-1.19,1.25-2,2Z"/>
      <path class="cls-4" d="M613,420l-294,2c2.11-1.01,3.87-2.32,6.45-2.05l287.55.05Z"/>
      <path class="cls-3" d="M311,839c23.76-.02,47.77-.71,71.52,0,.87.03,3.6-.41,1.98,1.01-44,.36-88.04-.49-132.04-.05-2.36.02-4.55,1.05-6.92,1.08-20.64.24-41.57-1.09-62.03.98-.84.06-.68-1.5-.52-2.02,6.32-.07,12.68.08,19,0,12.61-.15,25.73-.86,38-1,23.64-.27,47.36.02,71,0Z"/>
      <path class="cls-3" d="M838,845c-33.27,2.22-68.57,2.57-102,3-.56-3.02,1.53-1.94,3.45-2,24.34-.81,48.74-.33,73.09-.96,7.89-.2,17.53-2.82,25.46-.04Z"/>
      <path class="cls-6" d="M453,401l-128-1,128,1Z"/>
      <path class="cls-4" d="M614,598c-.35.3-.64.7-1,1v-113l1,112Z"/>
      <path class="cls-3" d="M711,839c9.65,0,19.35-.08,29,0-1.04,1.66-3.79,1-5.49,1.02-28.49.35-57.03-.29-85.51-.03-.23-1.74,2.27-.94,3.48-.99,19.13-.79,39.27.01,58.51,0Z"/>
      <path class="cls-3" d="M734,848c-12.64.16-25.36.02-38,0-13.99-.02-28.6.57-42.51,0-1.22-.05-3.72.75-3.48-.99,26.15.21,52.35-.3,78.51-.03,1.69.02,4.45-.64,5.49,1.02Z"/>
      <path class="cls-4" d="M284,493c-1.86-1.04-.9-3.59-.72-5.2,1.8-16.28,1.91-26.38,10.72-40.8,2,.59,0,3-.49,4.01-8.08,16.64-5.75,25.93-9.51,41.99Z"/>
      <path class="cls-5" d="M322,797c26.91,6.45,7.57-23.78,5.23-34.73-3.4-15.93,3.33-29.09,6.77-44.27,1.94,9.61-6.51,21.81-6.66,30.3-.04,2.43.67,10.26.95,13.08.29,2.91,6.22,13.27,7.42,18.41,1.51,6.51,3.78,18.13-5.44,20.04-4.23.87-5.35-1.11-8.27-2.83Z"/>
      <path class="cls-3" d="M147,842c-.09,0,.11.87-1.48.97-3.01.19-6.02-.08-9.03.03-1.21.04-3.72-.75-3.48.99,3.83.13,7.7-.14,11.54,0,1.93.08,4.01-1.03,3.45,2-9.33-.48-18.69-1.25-28-2.01,0-1.68,3.32-1.9,4.49-2,6.95-.59,15.9-1.49,22.51.01Z"/>
      <path class="cls-3" d="M239,848c1.04-1.66,3.79-1,5.49-1.02,20.28-.21,41.89-.78,62.06.02,1.93.08,4.01-1.03,3.45,2-2,0-4,0-6,0-1.04-1.66-3.79-1-5.49-1.02-11.49-.14-23.03.02-34.51.02-8.32,0-16.68.07-25,0Z"/>
      <path class="cls-5" d="M771,345c-.12-.14-1.82-.14-2.87-1.59-1.78-2.47-2.2-5.1-3.78-7.46-4.37-1.07-23.71,5.55-27.73,8.21-6.59,4.36-8.65,15.14-13.66,19.3-1.59,1.32-10.29,5.39-12.67,6.33-6.39,2.53-14.61,4.19-21.3,6.22-.64,2.34.63,1.69,1.28,2.27,3.97,3.57,11.27,9.71,15.5,12.67,1.95,1.36,4.23,3.11,6.72,3.11,3.72,0,16.31-6.21,21.49-7.57,10.28-2.7,20.37-2.67,30.01-8.49-9.19,8.41-19.41,7.37-30.99,10.51-7.32,1.99-14.27,5.01-21.41,7.51-9-5.19-16.44-13.64-25.58-19.51,10.57-6.17,27.65-7.18,36.94-15.04,3.72-3.15,6.18-12.01,10.65-16.35,3.38-3.29,23.5-11.52,27.8-11.1,6.07.6,5.94,7.44,9.59,10.99Z"/>
      <path class="cls-5" d="M121,779c-3.87,6.21,4.59,4.65,6.09,6.65.61.81,7.77,16.92,8.23,18.53,1.06,3.72,3.43,12.7-2.32,12.82.11-.38,1.81-.6,2.07-2.48,1.39-10.37-7.41-18.54-9.21-28.37l-6.95-1.84c-1.35-2.67.16-3.73,2.09-5.3Z"/>
      <path class="cls-2" d="M445,540c.71.82,3.71,2.95,5.41,5.09,10.47,13.09,30.86,40.47,28.5,57.32-.93,6.64-8.81,17.32-14.91,20.59,2.6-2.64,8.37-8.85,10.2-12.3,1.9-3.6,3.95-9.87,3.59-13.91-1.28-14.33-22.98-46.08-32.79-56.79-.38-.42-3.58-.21-3-3v-1c1.37,1.58,2.26,3.14,3,4Z"/>
      <path class="cls-5" d="M169,760c3.84,14.73-2.58,29.42-3.04,43.54-.11,3.24,1.97,6.24.27,9.84.14.82,6.36,6.21,7.77,7.61l-7.7-5.29c-5.39-6.68,5.87-44.43.7-54.71.51-.17,1.62-.7,2-1Z"/>
      <path class="cls-4" d="M272,522l-18.81,43.72.77,1.78c2.94,1.26,4.59,3.04,7.5,4.51.68.35,3.94,1.22,1.54,1.98-1.55-.93-5.15-1.95-7-3s-3.39-3.03-6-3.01l22-45.99Z"/>
      <path class="cls-5" d="M283,726c.05.24,1.5.85.94,1.9-2.56.49-3.57,1.76-2.83,4.45,1.33,3.3,4.49,1.35,6.16,1.85,3.91,1.16,11.2,22.72,10.74,27.29-.23,2.28-4.65,4.56-3.02,8.51,2.31.12,4.27-.75,6.01,1-4.91,2.89-9.46-1.71-7.32-6.79,1.05-2.48,3.11-.32,2.2-7.61-.5-3.97-5.42-16.99-7.77-19.99-1.16-1.48-17.21-.09-5.11-10.61Z"/>
      <path class="cls-7" d="M304,849c-11.49,0-23.02.14-34.51.02-1.69-.02-4.45.64-5.49-1.02,11.49,0,23.02-.16,34.51-.02,1.69.02,4.45-.64,5.49,1.02Z"/>
      <path class="cls-7" d="M240,839c-12.27.14-25.39.85-38,1l38-1Z"/>
      <path class="cls-5" d="M143,730c-.14.52.05,1.35,0,2-6.88.46-16.46,2.28-22.04,6.46-1.09.82-6.92,7.32-7.49,8.51-2.43,5.06-.91,10.2-1.47,15.03-8.24-18.35,15.08-31.84,31-32Z"/>
      <path class="cls-5" d="M312,685c.05.85-.8,1.48-1,2-8.81-1.12-31.16,5.62-33.53,14.97-1,3.94.81,8.35-2.71,10.8-.29.2-.71-.8-.76-.77,1.12-8.49,1.91-13.13,9.07-18.43,7.25-5.37,19.99-8.88,28.93-8.57Z"/>
      <path class="cls-5" d="M112,763c-.81,2.27-1.96,2.36-2.02,2.63-1.13,5.27,3.13,3.48,6.02,5.37-.42.04-1.44,1.21-3.45,1.11-5.39-.26-4.76-7.14-.55-9.11Z"/>
      <path class="cls-4" d="M336,559c-6.11-4.8-12.16-10-16-17,5.53,5.55,11.61,10.5,16,17Z"/>
      <path class="cls-4" d="M339,562c1.53,1.13,2.97,2.1,5,2.01.28.28-4.33,5.05-5,5.99l-.89-1.9c4.02-.81,1.96-3.43.89-6.1Z"/>
      <path class="cls-5" d="M283,725c-2.07-2.33-3.44-3.82-6-5v-1.99s1.49,0,1.49,0c2.35,1.94,3.45,4.22,4.51,6.99Z"/>
      <path class="cls-5" d="M766,376c1.51-3.71,3.34-7.36,5-11,.46,4.55-2.39,7.77-5,11Z"/>
      <path class="cls-5" d="M117,771l1.95.5,5.04,6c.04,1.03-1.55.24-2,.5-.29-2.55-3.88-4.28-5-7Z"/>
      <path class="cls-6" d="M357,646l-4.45,6.07-9.55,6.93c4.84-4.26,9.26-8.72,14-13Z"/>
      <path class="cls-6" d="M216,430l1-1c-.31.35-.66.68-1,1Z"/>
      <path class="cls-6" d="M291,296l1-1-1,1Z"/>
      <path class="cls-6" d="M199,392c1.56-1.66,2.63-3.98,5-5-1.4,1.98-2.81,3.82-5,5Z"/>
      <path class="cls-6" d="M249,352l1-1c-.25.38-.77.65-1,1Z"/>
      <path class="cls-6" d="M271,322l1-1c-.28.37-.73.64-1,1Z"/>
      <path class="cls-6" d="M273,319l1-1-1,1Z"/>
      <path class="cls-6" d="M279,311l1-1c-.31.39-.75.67-1,1Z"/>
      <path class="cls-6" d="M283,306l1-1c-.3.37-.72.65-1,1Z"/>
    </g>
  </g>
</svg>